# xmcd
#
# Track frame offsets:
#	150
#	16554
#	37001
#	58087
#	77275
#	102046
#	124194
#	143994
#	161695
#	177499
#	190956
#	207292
#
# Disc length: 3047
#
# Revision: 2
# Processed by: cddbd v1.5.1PL0 Copyright (c) Steve Scherf et al.
# Submitted via: CDex 1.50Beta7
# Normalized: r0:DSETVAR1,TDELIM( - );r1:TSWAP
#
DISCID=9c0be50c
DTITLE=Various Artist - WJZZ Smooth Jazz Collection Vol. 2: The Classics
DYEAR=2003
DGENRE=Jazz
TTITLE0=Mark Antoine - Mas Que Nada
TTITLE1=Boney James - Into The Blue
TTITLE2=Al Jarreau - Random Act Of Love
TTITLE3=Gato Barbieri - Europa (Earth's Cry, Heaven's Smile)
TTITLE4=David Benoit - Miles After Dark
TTITLE5=Grover Washington, Jr. - Mister Magic
TTITLE6=Brenda Russell - Piano In The Dark
TTITLE7=David Sanborn - Spooky
TTITLE8=Chuck Mangione - Feels So Good
TTITLE9=Etta James - At Last
TTITLE10=Richard Elliot - Crush
TTITLE11=Norman Brown - That's The Way Love Goes
EXTD=YEAR: 2003
EXTT0=
EXTT1=
EXTT2=
EXTT3=
EXTT4=
EXTT5=
EXTT6=
EXTT7=
EXTT8=
EXTT9=
EXTT10=
EXTT11=
PLAYORDER=
